# xmcd CD database file
#
# Track frame offsets:
#	150
#	12640
#	27584
#	43946
#	62705
#	79406
#	97432
#	113881
#	131364
#	148534
#
# Disc length: 2229 seconds
#
# Revision: 0
# Processed by: cddbd v1.5.2PL0 Copyright (c) Steve Scherf et al.
# Submitted via: CDex 1.70beta3
#
DISCID=9608b30a
DTITLE=Don Elliott - Mellophone
DYEAR=1955
DGENRE=Jazz
TTITLE0=Spring Is Here
TTITLE1=S'posin'
TTITLE2=With The Wind And The Rain In Your Hair
TTITLE3=Summer Setting
TTITLE4=Fascinating Rhythm
TTITLE5=Almost Like Being In Love
TTITLE6=Deep Purple
TTITLE7=The Lamp Is Low
TTITLE8=My Reverie
TTITLE9=Mellophone Mambo
EXTD=YEAR: 1955
EXTT0=
EXTT1=
EXTT2=
EXTT3=
EXTT4=
EXTT5=
EXTT6=
EXTT7=
EXTT8=
EXTT9=
PLAYORDER=
